# Blender v2.93.4 OBJ File: 'slingshot.blend'
# www.blender.org
mtllib slingshot.mtl
o Cylinder
v 0.554156 -3.907638 -0.554156
v 0.548768 4.068300 -0.554156
v 0.783696 -3.907638 0.000000
v 0.783062 3.907638 0.000000
v 0.554156 -3.907638 0.554156
v 0.548768 4.068300 0.554156
v 3.420716 10.504608 -0.259284
v 3.156676 10.564715 -0.327195
v 3.544557 10.476315 -0.000000
v 3.420716 10.504608 0.259284
v 3.156676 10.564715 0.327195
v 3.015779 10.576281 -0.234875
v 3.015779 10.576280 0.234875
v 2.883050 10.577201 -0.000000
v 3.479060 10.170092 -0.396893
v 3.072695 10.252070 -0.501392
v 3.668659 10.131719 0.000000
v 3.479060 10.170092 0.396893
v 3.072695 10.252070 0.501392
v 2.835571 10.281078 0.345978
v 2.640141 10.294928 0.000000
v 2.835571 10.281078 -0.345978
v 2.982147 7.346430 0.481541
v 2.481027 7.396589 0.644353
v 2.982147 7.346430 -0.481541
v 3.199075 7.322952 0.000000
v 2.481027 7.396589 -0.644353
v 2.208901 7.414336 0.410266
v 1.984048 7.422811 -0.000000
v 2.208901 7.414337 -0.410266
v 1.091124 5.067132 0.763869
v 1.907042 5.039648 0.000000
v 1.091124 5.067132 -0.763869
v 0.545447 5.076918 -0.000000
v 0.792594 5.073755 -0.461000
v 1.669609 5.048410 0.549809
v 1.669609 5.048410 -0.549809
v 0.792594 5.073755 0.461000
v 0.000000 -3.907638 -0.783696
v 0.000000 4.200610 -0.783696
v -0.554156 -3.907638 -0.554156
v -0.548768 4.068300 -0.554156
v -0.783696 -3.907638 0.000000
v -0.783062 3.907638 0.000000
v -0.554156 -3.907638 0.554156
v -0.548768 4.068300 0.554156
v 0.000000 -3.907638 0.783696
v 0.000000 4.200610 0.783696
v -3.420716 10.504608 -0.259284
v -3.156676 10.564715 -0.327195
v -3.544557 10.476315 -0.000000
v -3.420716 10.504608 0.259284
v -3.156676 10.564715 0.327195
v -3.015779 10.576281 -0.234875
v -3.015779 10.576280 0.234875
v -2.883050 10.577201 -0.000000
v 0.000000 4.503118 0.461009
v 0.000000 4.505292 -0.461009
v 0.000000 4.725183 -0.000000
v -3.479060 10.170092 -0.396893
v -3.072695 10.252070 -0.501392
v -3.668659 10.131719 0.000000
v -3.479060 10.170092 0.396893
v -3.072695 10.252070 0.501392
v -2.835571 10.281078 0.345978
v -2.640141 10.294928 0.000000
v -2.835571 10.281078 -0.345978
v -2.982147 7.346430 0.481541
v -2.481027 7.396589 0.644353
v -2.982147 7.346430 -0.481541
v -3.199075 7.322952 0.000000
v -2.481027 7.396589 -0.644353
v -2.208901 7.414336 0.410266
v -1.984048 7.422811 -0.000000
v -2.208901 7.414337 -0.410266
v -1.091124 5.067132 0.763869
v -1.907042 5.039648 0.000000
v -1.091124 5.067132 -0.763869
v -0.545447 5.076918 -0.000000
v -0.792594 5.073755 -0.461000
v -1.669609 5.048410 0.549809
v -1.669609 5.048410 -0.549809
v -0.792594 5.073755 0.461000
vt 1.000000 0.500000
vt 1.000000 1.000000
vt 0.875000 1.000000
vt 0.875000 0.500000
vt 0.750000 1.000000
vt 0.750000 0.500000
vt 0.625000 1.000000
vt 0.625000 0.500000
vt 0.500000 1.000000
vt 0.500000 0.500000
vt 0.500000 1.000000
vt 0.625000 1.000000
vt 0.625000 1.000000
vt 0.500000 1.000000
vt 1.000000 1.000000
vt 0.897063 1.000000
vt 0.897063 1.000000
vt 0.750000 1.000000
vt 0.875000 1.000000
vt 0.875000 1.000000
vt 0.750000 1.000000
vt 1.000000 1.000000
vt 1.000000 1.000000
vt 0.377103 0.351166
vt 0.301454 0.381562
vt 0.285508 0.340735
vt 0.279431 0.250000
vt 0.285508 0.159265
vt 0.301454 0.118438
vt 0.377103 0.148834
vt 0.417415 0.250000
vt 0.602937 1.000000
vt 0.602937 1.000000
vt 0.750000 1.000000
vt 0.750000 1.000000
vt 0.897063 1.000000
vt 0.897063 1.000000
vt 0.602937 1.000000
vt 0.602937 1.000000
vt 0.500000 1.000000
vt 0.419706 0.419706
vt 0.250000 0.490000
vt 0.490000 0.250000
vt 0.419706 0.080294
vt 0.250000 0.010000
vt 0.263201 0.250000
vt 0.250000 0.108820
vt 0.250000 0.391180
vt 0.750000 1.000000
vt 0.625000 1.000000
vt 0.750000 1.000000
vt 0.875000 1.000000
vt 0.750000 1.000000
vt 0.875000 0.500000
vt 0.875000 1.000000
vt 0.750000 0.500000
vt 0.750000 1.000000
vt 0.625000 0.500000
vt 0.625000 1.000000
vt 0.500000 1.000000
vt 0.500000 1.000000
vt 0.625000 1.000000
vt 0.625000 1.000000
vt 1.000000 1.000000
vt 0.897063 1.000000
vt 0.750000 1.000000
vt 0.750000 1.000000
vt 0.875000 1.000000
vt 0.875000 1.000000
vt 1.000000 1.000000
vt 1.000000 1.000000
vt 0.377103 0.351166
vt 0.417415 0.250000
vt 0.377103 0.148834
vt 0.301454 0.118438
vt 0.285508 0.159265
vt 0.279431 0.250000
vt 0.285508 0.340735
vt 0.301454 0.381562
vt 0.602937 1.000000
vt 0.750000 1.000000
vt 0.750000 1.000000
vt 0.602937 1.000000
vt 0.897063 1.000000
vt 0.897063 1.000000
vt 0.602937 1.000000
vt 0.500000 1.000000
vt 0.250000 0.490000
vt 0.419706 0.419706
vt 0.490000 0.250000
vt 0.419706 0.080294
vt 0.250000 0.010000
vt 0.250000 0.108820
vt 0.263201 0.250000
vt 0.250000 0.391180
vt 0.750000 1.000000
vt 0.625000 1.000000
vt 0.750000 1.000000
vt 0.875000 1.000000
vn 0.0000 -0.6305 -0.7762
vn 0.0000 0.1458 -0.9893
vn 0.5765 -0.2875 -0.7648
vn 0.5488 -0.6297 -0.5497
vn 0.9263 -0.3768 0.0000
vn 0.7761 -0.6306 0.0000
vn 0.5765 -0.2875 0.7648
vn 0.5488 -0.6297 0.5497
vn 0.0000 0.1464 0.9892
vn 0.0000 -0.6305 0.7762
vn -0.1281 0.0789 0.9886
vn 0.6563 -0.2217 0.7212
vn 0.6612 0.1352 0.7379
vn -0.1199 0.2907 0.9492
vn -0.1220 0.0850 -0.9889
vn 0.0000 0.8316 -0.5553
vn -0.6191 0.5923 -0.5155
vn 0.9465 -0.3227 0.0000
vn 0.6563 -0.2217 -0.7212
vn 0.6612 0.1352 -0.7379
vn 0.9974 0.0712 0.0000
vn -0.1281 0.0789 -0.9886
vn -0.1199 0.2907 -0.9492
vn 0.5065 0.7268 -0.4638
vn 0.0389 0.8164 -0.5762
vn -0.2792 0.8812 -0.3814
vn -0.4694 0.8830 0.0000
vn -0.2792 0.8812 0.3814
vn 0.0389 0.8164 0.5762
vn 0.5065 0.7268 0.4638
vn 0.7260 0.6877 0.0000
vn -0.7236 0.3138 0.6147
vn -0.6753 0.3773 0.6337
vn -0.9058 0.4237 0.0000
vn -0.9180 0.3964 0.0000
vn -0.6753 0.3773 -0.6337
vn -0.7236 0.3138 -0.6147
vn -0.6195 0.5922 0.5152
vn 0.0000 0.8316 0.5553
vn -0.1223 0.0851 0.9888
vn -0.6929 0.7210 0.0005
vn 0.5724 -0.4434 0.6897
vn 0.8018 -0.5976 0.0000
vn 0.5724 -0.4434 -0.6897
vn 0.0000 1.0000 0.0013
vn -0.5488 -0.6297 -0.5497
vn -0.5765 -0.2875 -0.7648
vn -0.7761 -0.6306 0.0000
vn -0.9263 -0.3768 0.0000
vn -0.5488 -0.6297 0.5497
vn -0.5765 -0.2875 0.7648
vn 0.1281 0.0789 0.9886
vn 0.1199 0.2907 0.9492
vn -0.6612 0.1352 0.7379
vn -0.6563 -0.2217 0.7212
vn 0.1220 0.0850 -0.9889
vn 0.6191 0.5923 -0.5155
vn -0.9465 -0.3227 0.0000
vn -0.9974 0.0712 0.0000
vn -0.6612 0.1352 -0.7379
vn -0.6563 -0.2217 -0.7212
vn 0.1199 0.2907 -0.9492
vn 0.1281 0.0789 -0.9886
vn -0.5065 0.7268 -0.4638
vn -0.7260 0.6877 0.0000
vn -0.5065 0.7268 0.4638
vn -0.0389 0.8164 0.5762
vn 0.2792 0.8812 0.3814
vn 0.4694 0.8830 0.0000
vn 0.2792 0.8812 -0.3814
vn -0.0389 0.8164 -0.5762
vn 0.7236 0.3138 0.6147
vn 0.9180 0.3964 0.0000
vn 0.9058 0.4237 0.0000
vn 0.6753 0.3773 0.6337
vn 0.7236 0.3138 -0.6147
vn 0.6753 0.3773 -0.6337
vn 0.6195 0.5922 0.5152
vn 0.1223 0.0851 0.9888
vn 0.6929 0.7210 0.0005
vn -0.5724 -0.4434 0.6897
vn -0.8018 -0.5976 0.0000
vn -0.5724 -0.4434 -0.6897
usemtl Material.001
s 1
f 39/1/1 40/2/2 2/3/3 1/4/4
f 1/4/4 2/3/3 4/5/5 3/6/6
f 3/6/6 4/5/5 6/7/7 5/8/8
f 5/8/8 6/7/7 48/9/9 47/10/10
f 24/11/11 23/12/12 18/13/13 19/14/14
f 33/15/15 40/2/2 58/16/16 35/17/17
f 26/18/18 25/19/19 15/20/20 17/21/21
f 25/19/19 27/22/22 16/23/23 15/20/20
f 23/12/12 26/18/18 17/21/21 18/13/13
f 7/24/24 8/25/25 12/26/26 14/27/27 13/28/28 11/29/29 10/30/30 9/31/31
f 28/32/32 20/33/33 21/34/34 29/35/35
f 29/35/35 21/34/34 22/36/36 30/37/37
f 38/38/38 57/39/39 48/9/9 31/40/40
f 8/25/25 7/24/24 15/41/20 16/42/23
f 7/24/24 9/31/31 17/43/21 15/41/20
f 9/31/31 10/30/30 18/44/13 17/43/21
f 10/30/30 11/29/29 19/45/14 18/44/13
f 13/28/28 14/27/27 21/46/34 20/47/33
f 14/27/27 12/26/26 22/48/36 21/46/34
f 11/29/29 13/28/28 20/47/33 19/45/14
f 12/26/26 8/25/25 16/42/23 22/48/36
f 20/33/33 28/32/32 24/11/11 19/14/14
f 34/49/41 29/35/35 30/37/37 35/17/17
f 38/38/38 28/32/32 29/35/35 34/49/41
f 36/50/42 32/51/43 26/18/18 23/12/12
f 37/52/44 33/15/15 27/22/22 25/19/19
f 32/51/43 37/52/44 25/19/19 26/18/18
f 16/23/23 27/22/22 30/37/37 22/36/36
f 31/40/40 36/50/42 23/12/12 24/11/11
f 48/9/9 6/7/7 36/50/42 31/40/40
f 4/5/5 2/3/3 37/52/44 32/51/43
f 2/3/3 40/2/2 33/15/15 37/52/44
f 6/7/7 4/5/5 32/51/43 36/50/42
f 57/39/39 38/38/38 34/49/41 59/53/45
f 59/53/45 34/49/41 35/17/17 58/16/16
f 28/32/32 38/38/38 31/40/40 24/11/11
f 27/22/22 33/15/15 35/17/17 30/37/37
f 39/1/1 1/4/4 3/6/6 5/8/8 47/10/10
f 39/1/1 41/54/46 42/55/47 40/2/2
f 41/54/46 43/56/48 44/57/49 42/55/47
f 43/56/48 45/58/50 46/59/51 44/57/49
f 45/58/50 47/10/10 48/9/9 46/59/51
f 69/60/52 64/61/53 63/62/54 68/63/55
f 78/64/56 80/65/57 58/16/16 40/2/2
f 71/66/58 62/67/59 60/68/60 70/69/61
f 70/69/61 60/68/60 61/70/62 72/71/63
f 68/63/55 63/62/54 62/67/59 71/66/58
f 49/72/64 51/73/65 52/74/66 53/75/67 55/76/68 56/77/69 54/78/70 50/79/71
f 73/80/72 74/81/73 66/82/74 65/83/75
f 74/81/73 75/84/76 67/85/77 66/82/74
f 83/86/78 76/87/79 48/9/9 57/39/39
f 50/79/71 61/88/62 60/89/60 49/72/64
f 49/72/64 60/89/60 62/90/59 51/73/65
f 51/73/65 62/90/59 63/91/54 52/74/66
f 52/74/66 63/91/54 64/92/53 53/75/67
f 55/76/68 65/93/75 66/94/74 56/77/69
f 56/77/69 66/94/74 67/95/77 54/78/70
f 53/75/67 64/92/53 65/93/75 55/76/68
f 54/78/70 67/95/77 61/88/62 50/79/71
f 65/83/75 64/61/53 69/60/52 73/80/72
f 79/96/80 80/65/57 75/84/76 74/81/73
f 83/86/78 79/96/80 74/81/73 73/80/72
f 81/97/81 68/63/55 71/66/58 77/98/82
f 82/99/83 70/69/61 72/71/63 78/64/56
f 77/98/82 71/66/58 70/69/61 82/99/83
f 61/70/62 67/85/77 75/84/76 72/71/63
f 76/87/79 69/60/52 68/63/55 81/97/81
f 48/9/9 76/87/79 81/97/81 46/59/51
f 44/57/49 77/98/82 82/99/83 42/55/47
f 42/55/47 82/99/83 78/64/56 40/2/2
f 46/59/51 81/97/81 77/98/82 44/57/49
f 57/39/39 59/53/45 79/96/80 83/86/78
f 59/53/45 58/16/16 80/65/57 79/96/80
f 73/80/72 69/60/52 76/87/79 83/86/78
f 72/71/63 75/84/76 80/65/57 78/64/56
f 39/1/1 47/10/10 45/58/50 43/56/48 41/54/46
